<mxfile host="app.diagrams.net" agent="Mozilla/5.0 (X11; Linux x86_64; rv:133.0) Gecko/20100101 Firefox/133.0" version="26.0.1">
  <diagram name="Page-1" id="ofl5emBVI_9CfABi3UJh">
    <mxGraphModel dx="2261" dy="760" grid="1" gridSize="10" guides="1" tooltips="1" connect="1" arrows="1" fold="1" page="1" pageScale="1" pageWidth="827" pageHeight="1169" math="0" shadow="0">
      <root>
        <mxCell id="0" />
        <mxCell id="1" parent="0" />
        <mxCell id="0wKBffu3RnvZqdUCQKXc-3" value="" style="group" vertex="1" connectable="0" parent="1">
          <mxGeometry x="139" y="150" width="550" height="440" as="geometry" />
        </mxCell>
        <mxCell id="0wKBffu3RnvZqdUCQKXc-1" value="" style="rounded=0;whiteSpace=wrap;html=1;" vertex="1" parent="0wKBffu3RnvZqdUCQKXc-3">
          <mxGeometry width="550" height="440" as="geometry" />
        </mxCell>
        <mxCell id="0wKBffu3RnvZqdUCQKXc-2" value="StudyBase Backend" style="text;html=1;align=center;verticalAlign=middle;whiteSpace=wrap;rounded=0;" vertex="1" parent="0wKBffu3RnvZqdUCQKXc-3">
          <mxGeometry width="151" height="30" as="geometry" />
        </mxCell>
        <mxCell id="0wKBffu3RnvZqdUCQKXc-4" value="StudyCourse Frontend" style="html=1;whiteSpace=wrap;" vertex="1" parent="1">
          <mxGeometry x="-100" y="330" width="110" height="50" as="geometry" />
        </mxCell>
      </root>
    </mxGraphModel>
  </diagram>
</mxfile>
